<mxfile host="app.diagrams.net" modified="2023-04-07T23:40:37.024Z" agent="Mozilla/5.0 (Macintosh; Intel Mac OS X 10_15_7) AppleWebKit/537.36 (KHTML, like Gecko) Chrome/110.0.0.0 Safari/537.36" etag="nOA9ZIzNE5CX9ry8f3YA" version="21.1.4" type="device">
  <diagram name="Page-1" id="Fr_Rkm1PW8PCNC4SR5-u">
    <mxGraphModel dx="989" dy="574" grid="1" gridSize="10" guides="1" tooltips="1" connect="1" arrows="1" fold="1" page="1" pageScale="1" pageWidth="850" pageHeight="1100" math="0" shadow="0">
      <root>
        <mxCell id="0" />
        <mxCell id="1" parent="0" />
        <mxCell id="zmMZuEEPGzxRLnjfXYOX-14" style="edgeStyle=orthogonalEdgeStyle;rounded=0;orthogonalLoop=1;jettySize=auto;html=1;exitX=0.5;exitY=1;exitDx=0;exitDy=0;entryX=0.5;entryY=0;entryDx=0;entryDy=0;" edge="1" parent="1" source="zmMZuEEPGzxRLnjfXYOX-1" target="zmMZuEEPGzxRLnjfXYOX-13">
          <mxGeometry relative="1" as="geometry" />
        </mxCell>
        <mxCell id="zmMZuEEPGzxRLnjfXYOX-1" value="Agent" style="rounded=0;whiteSpace=wrap;html=1;" vertex="1" parent="1">
          <mxGeometry x="320" y="320" width="120" height="60" as="geometry" />
        </mxCell>
        <mxCell id="zmMZuEEPGzxRLnjfXYOX-2" value="output" style="rounded=0;whiteSpace=wrap;html=1;" vertex="1" parent="1">
          <mxGeometry x="310" y="780" width="120" height="60" as="geometry" />
        </mxCell>
        <mxCell id="zmMZuEEPGzxRLnjfXYOX-6" style="edgeStyle=orthogonalEdgeStyle;rounded=0;orthogonalLoop=1;jettySize=auto;html=1;exitX=0.5;exitY=1;exitDx=0;exitDy=0;entryX=0.5;entryY=0;entryDx=0;entryDy=0;" edge="1" parent="1" source="zmMZuEEPGzxRLnjfXYOX-3" target="zmMZuEEPGzxRLnjfXYOX-4">
          <mxGeometry relative="1" as="geometry" />
        </mxCell>
        <mxCell id="zmMZuEEPGzxRLnjfXYOX-7" style="edgeStyle=orthogonalEdgeStyle;rounded=0;orthogonalLoop=1;jettySize=auto;html=1;exitX=0.5;exitY=1;exitDx=0;exitDy=0;entryX=0.5;entryY=0;entryDx=0;entryDy=0;" edge="1" parent="1" source="zmMZuEEPGzxRLnjfXYOX-3" target="zmMZuEEPGzxRLnjfXYOX-1">
          <mxGeometry relative="1" as="geometry" />
        </mxCell>
        <mxCell id="zmMZuEEPGzxRLnjfXYOX-8" style="edgeStyle=orthogonalEdgeStyle;rounded=0;orthogonalLoop=1;jettySize=auto;html=1;exitX=0.5;exitY=1;exitDx=0;exitDy=0;entryX=0.5;entryY=0;entryDx=0;entryDy=0;" edge="1" parent="1" source="zmMZuEEPGzxRLnjfXYOX-3" target="zmMZuEEPGzxRLnjfXYOX-5">
          <mxGeometry relative="1" as="geometry" />
        </mxCell>
        <mxCell id="zmMZuEEPGzxRLnjfXYOX-3" value="input" style="rounded=0;whiteSpace=wrap;html=1;" vertex="1" parent="1">
          <mxGeometry x="305" y="70" width="120" height="60" as="geometry" />
        </mxCell>
        <mxCell id="zmMZuEEPGzxRLnjfXYOX-9" style="edgeStyle=orthogonalEdgeStyle;rounded=0;orthogonalLoop=1;jettySize=auto;html=1;exitX=0.5;exitY=1;exitDx=0;exitDy=0;entryX=0.5;entryY=0;entryDx=0;entryDy=0;" edge="1" parent="1" source="zmMZuEEPGzxRLnjfXYOX-4" target="zmMZuEEPGzxRLnjfXYOX-2">
          <mxGeometry relative="1" as="geometry" />
        </mxCell>
        <mxCell id="zmMZuEEPGzxRLnjfXYOX-4" value="Agent" style="rounded=0;whiteSpace=wrap;html=1;" vertex="1" parent="1">
          <mxGeometry x="120" y="320" width="120" height="60" as="geometry" />
        </mxCell>
        <mxCell id="zmMZuEEPGzxRLnjfXYOX-11" style="edgeStyle=orthogonalEdgeStyle;rounded=0;orthogonalLoop=1;jettySize=auto;html=1;exitX=0.5;exitY=1;exitDx=0;exitDy=0;entryX=0.5;entryY=0;entryDx=0;entryDy=0;" edge="1" parent="1" source="zmMZuEEPGzxRLnjfXYOX-5" target="zmMZuEEPGzxRLnjfXYOX-2">
          <mxGeometry relative="1" as="geometry" />
        </mxCell>
        <mxCell id="zmMZuEEPGzxRLnjfXYOX-5" value="Agent" style="rounded=0;whiteSpace=wrap;html=1;" vertex="1" parent="1">
          <mxGeometry x="520" y="320" width="120" height="60" as="geometry" />
        </mxCell>
        <mxCell id="zmMZuEEPGzxRLnjfXYOX-15" style="edgeStyle=orthogonalEdgeStyle;rounded=0;orthogonalLoop=1;jettySize=auto;html=1;exitX=0.5;exitY=1;exitDx=0;exitDy=0;" edge="1" parent="1" source="zmMZuEEPGzxRLnjfXYOX-13">
          <mxGeometry relative="1" as="geometry">
            <mxPoint x="370" y="780" as="targetPoint" />
          </mxGeometry>
        </mxCell>
        <mxCell id="zmMZuEEPGzxRLnjfXYOX-13" value="Agent" style="rounded=0;whiteSpace=wrap;html=1;" vertex="1" parent="1">
          <mxGeometry x="310" y="450" width="120" height="60" as="geometry" />
        </mxCell>
      </root>
    </mxGraphModel>
  </diagram>
</mxfile>
